<?xml version="1.0" standalone="no"?>
<!DOCTYPE svg PUBLIC "-//W3C//DTD SVG 20010904//EN"
 "http://www.w3.org/TR/2001/REC-SVG-20010904/DTD/svg10.dtd">
<svg version="1.0" xmlns="http://www.w3.org/2000/svg"
 width="500.000000pt" height="500.000000pt" viewBox="0 0 500.000000 500.000000"
 preserveAspectRatio="xMidYMid meet">

<g transform="translate(0.000000,500.000000) scale(0.100000,-0.100000)"
fill="#000000" stroke="none">
<path d="M2280 4335 c-107 -35 -275 -89 -373 -120 -145 -46 -180 -61 -194 -81
-19 -29 -10 -69 19 -88 24 -14 79 1 463 125 l310 101 358 -116 c197 -64 373
-116 391 -116 36 0 52 13 57 45 6 39 -11 63 -54 79 -157 57 -728 236 -752 236
-17 -1 -118 -30 -225 -65z"/>
<path d="M2408 4091 c-42 -15 -84 -34 -93 -41 -22 -18 -19 -73 5 -95 20 -18
23 -18 95 3 41 12 83 22 92 22 20 0 371 -111 391 -123 12 -8 18 -128 7 -139
-3 -2 -78 19 -168 49 -89 29 -180 56 -202 59 -32 5 -77 -6 -214 -51 -96 -32
-181 -59 -188 -62 -11 -4 -13 10 -11 72 l3 77 35 12 c43 14 65 52 51 89 -17
45 -43 50 -121 27 -38 -11 -76 -28 -85 -36 -13 -13 -15 -55 -15 -285 l0 -269
-194 0 c-190 0 -195 -1 -210 -22 -21 -30 -20 -51 3 -79 19 -23 23 -24 210 -27
l191 -4 0 -528 0 -528 -305 -4 c-169 -2 -397 -2 -508 0 l-202 4 -3 177 c-3
154 -6 178 -22 195 -22 23 -69 24 -85 2 -8 -10 -15 -83 -20 -195 l-7 -178 -57
-6 c-68 -6 -112 -26 -164 -76 -73 -68 -82 -98 -82 -256 0 -136 1 -141 29 -193
17 -30 48 -67 69 -85 61 -48 116 -57 338 -57 l196 0 6 -84 c11 -134 53 -209
149 -262 l53 -29 313 -3 c234 -2 312 -6 312 -15 0 -28 62 -140 101 -182 31
-33 70 -59 143 -94 118 -56 166 -102 214 -204 18 -37 32 -72 32 -77 0 -28 18
-3 43 61 42 101 114 177 205 213 129 50 214 130 253 237 l22 59 292 0 292 0
61 31 c107 53 153 128 160 261 l4 86 222 4 c205 3 224 5 262 25 65 35 100 69
128 125 24 48 26 62 26 182 0 106 -4 139 -19 172 -44 96 -124 150 -237 161
l-64 6 0 886 c0 677 -3 890 -12 899 -9 9 -103 12 -363 12 -328 0 -353 -1 -368
-18 -25 -27 -22 -78 5 -96 19 -14 66 -16 315 -16 l293 0 0 -835 0 -835 -485 0
-485 0 2 531 3 531 165 -1 c180 -1 208 5 224 51 7 20 5 33 -8 52 l-17 26 -247
-2 -247 -3 -3 -592 -2 -593 -395 0 -395 0 0 529 c0 292 3 531 8 533 4 2 123 2
265 0 l257 -3 -2 -267 -3 -267 -127 -3 -128 -3 -1 38 c-1 21 -4 110 -8 198
l-6 159 -27 16 c-25 13 -31 13 -55 0 l-28 -16 -3 -252 -2 -252 22 -9 c13 -4
120 -9 238 -10 162 -1 220 2 233 11 16 12 18 44 22 378 2 201 1 375 -2 387
l-5 23 -322 2 -321 3 -3 79 c-2 44 1 83 5 87 4 4 94 35 198 69 l191 61 244
-80 c184 -60 248 -77 262 -70 16 9 18 26 18 194 0 151 -3 186 -15 199 -17 16
-492 176 -522 175 -10 0 -53 -13 -95 -28z m1850 -2021 c61 -28 82 -77 82 -195
0 -118 -21 -167 -82 -195 -42 -19 -81 -20 -1753 -20 -1131 0 -1722 4 -1747 10
-20 6 -50 26 -67 46 -31 34 -31 35 -31 150 0 145 18 185 95 212 21 7 573 11
1745 11 1678 1 1716 0 1758 -19z m-2268 -661 l0 -130 -294 3 c-279 3 -296 4
-322 24 -55 41 -69 70 -73 155 l-3 79 346 0 346 0 0 -131z m450 71 c0 -91 45
-126 104 -79 23 18 26 28 26 80 l0 59 166 0 166 0 -4 -177 c-4 -157 -7 -184
-27 -228 -33 -74 -65 -102 -176 -154 -71 -34 -114 -62 -147 -96 l-48 -48 -47
48 c-34 34 -79 63 -150 97 -167 80 -182 111 -183 376 l0 182 160 0 160 0 0
-60z m1249 -22 c-5 -96 -20 -126 -85 -158 -39 -19 -57 -20 -310 -18 l-269 3
-3 128 -3 127 337 0 336 0 -3 -82z"/>
<path d="M853 3998 c-4 -7 -8 -269 -8 -582 l1 -568 23 -19 c30 -24 56 -24 81
1 19 19 20 33 20 308 0 159 3 391 7 515 l6 227 309 0 309 0 24 25 c32 31 32
58 -1 84 -26 20 -38 21 -395 21 -283 0 -370 -3 -376 -12z"/>
<path d="M1274 3381 c-12 -5 -31 -22 -43 -38 -24 -30 -25 -69 -2 -163 6 -25
20 -137 31 -250 24 -228 33 -275 56 -284 9 -3 82 -6 162 -6 l147 0 39 -92 c72
-171 115 -258 130 -264 8 -3 52 9 98 28 l83 33 -1 38 c-1 21 -9 46 -17 55 -14
13 -22 14 -58 3 -23 -7 -45 -9 -49 -4 -4 4 -35 68 -69 142 -91 200 -66 181
-236 181 l-145 0 0 24 c0 24 1 24 121 28 106 3 122 5 135 22 17 23 18 60 4 87
-10 17 -22 19 -140 19 -71 0 -131 3 -133 8 -3 4 -10 56 -17 116 l-11 109 30
28 c50 45 53 102 8 154 -24 29 -86 42 -123 26z"/>
<path d="M1142 2846 c-150 -140 -161 -366 -25 -517 135 -150 385 -159 536 -20
l45 42 -36 65 c-36 65 -37 66 -51 42 -9 -12 -32 -40 -53 -60 -105 -103 -281
-79 -372 50 -25 35 -31 55 -34 112 -4 58 0 76 22 122 14 29 31 60 37 69 9 12
8 31 -2 80 l-14 64 -53 -49z"/>
</g>
</svg>
